<svg xmlns="http://www.w3.org/2000/svg" xmlns:bx="https://boxy-svg.com" xmlns:xlink="http://www.w3.org/1999/xlink" id="svg566" width="128" height="128" version="1"><defs id="defs570"><linearGradient id="linearGradient873"><stop style="stop-opacity:1;stop-color:#893406" id="stop869" offset="0"/><stop style="stop-opacity:1;stop-color:#ff5a00" id="stop877" offset=".072"/><stop style="stop-opacity:1;stop-color:#893406" id="stop879" offset=".147"/><stop style="stop-opacity:1;stop-color:#893406" id="stop881" offset=".852"/><stop style="stop-opacity:1;stop-color:#ff5a00" id="stop883" offset=".933"/><stop style="stop-opacity:1;stop-color:#893406" id="stop871" offset="1"/></linearGradient><linearGradient id="linearGradient875" x1="10" x2="118" y1="66" y2="66" gradientTransform="matrix(1, 0, 0, 1, 0, 0)" gradientUnits="userSpaceOnUse" xlink:href="#linearGradient873"/></defs><g><g transform="matrix(1, 0, 0, 1, 9.999995, 8.000001) matrix(1, 0, 0, 1, -9.999995, -8.000001)"><path id="path550-3" fill="#1ed760" d="M 118 66 C 118 36.107 93.893 12 64 12 C 34.107 12 10 36.107 10 66 C 10 95.893 34.107 120 64 120 C 93.893 120 118 95.893 118 66 Z" style="fill:url(#linearGradient875);fill-opacity:1;stroke-width:1.92857"/><path id="path550" d="M 118 62 C 118 32.107 93.893 8 64 8 C 34.107 8 10 32.107 10 62 C 10 91.893 34.107 116 64 116 C 93.893 116 118 91.893 118 62 Z" style="stroke-width:1.92857;fill:#ff5a00"/></g><g style="fill:#fff" transform="matrix(1, 0, 0, 1, 9.999995, 8.000001) matrix(1.456522, 0, 0, 1.456522, 7.391302, 7.413038)" bx:origin="0 0"><circle cx="20" cy="24" r="3"/><circle cx="28" cy="24" r="3"/><circle cx="36" cy="24" r="3"/><circle cx="44" cy="24" r="3"/><circle cx="12" cy="32" r="3"/><circle cx="20" cy="32" r="3"/><circle cx="28" cy="32" r="3"/><circle cx="36" cy="32" r="3"/><circle cx="44" cy="32" r="3"/><circle cx="52" cy="32" r="3"/><circle cx="12" cy="40" r="3"/><circle cx="20" cy="40" r="3"/><circle cx="44" cy="40" r="3"/><circle cx="52" cy="40" r="3"/></g></g></svg>