<svg xmlns="http://www.w3.org/2000/svg" xmlns:svg="http://www.w3.org/2000/svg" id="svg292" width="128" height="128" version="1.1" viewBox="0 0 128 128"><defs id="defs296"><radialGradient id="b-3" cx="27.098" cy="123.358" r="130.749" gradientTransform="matrix(0.90000003,0,0,0.90003205,6.4,8.3963555)" gradientUnits="userSpaceOnUse"><stop id="stop275-6" offset="0" stop-color="#1c71d8" style="stop-color:#10427e;stop-opacity:1"/><stop id="stop277-7" offset=".61" stop-color="#9141ac" style="stop-color:#512460;stop-opacity:1"/><stop id="stop279-5" offset=".935" stop-color="#f66151" style="stop-color:#d51f0b;stop-opacity:1"/><stop id="stop281-3" offset="1" stop-color="#e66100" style="stop-color:#803600;stop-opacity:1"/></radialGradient></defs><radialGradient id="a" cx="49.273" cy="254.631" r="278.937" gradientTransform="matrix(0.42683986,0,0,0.43751218,9.3644944,7.9982642)" gradientUnits="userSpaceOnUse"><stop id="stop266" offset="0" stop-color="#165caf"/><stop id="stop268" offset=".61" stop-color="#75348c"/><stop id="stop270" offset=".935" stop-color="#c74e42"/><stop id="stop272" offset="1" stop-color="#ba4e00"/></radialGradient><radialGradient id="b" cx="27.098" cy="123.358" r="130.749" gradientTransform="matrix(0.90000003,0,0,0.90003205,6.4000003,4.3963576)" gradientUnits="userSpaceOnUse"><stop id="stop275" offset="0" stop-color="#1c71d8"/><stop id="stop277" offset=".61" stop-color="#9141ac"/><stop id="stop279" offset=".935" stop-color="#f66151"/><stop id="stop281" offset="1" stop-color="#e66100"/></radialGradient><path id="path288-5" fill="url(#b)" d="m 64.000003,12 c -30.420709,0 -54.000002,22.282826 -54.000002,52.377642 0,15.74353 6.451173,29.34949 16.959375,38.743558 0.882421,0.79106 1.413283,1.89851 1.451957,3.0798 l 0.291792,9.60504 c 0.09488,3.06572 3.258991,5.05916 6.064456,3.82161 l 10.715628,-4.73219 c 0.910548,-0.4008 1.926564,-0.47463 2.886322,-0.21095 4.925391,1.35357 10.167192,2.07429 15.630472,2.07429 C 94.420714,116.7588 118,94.475982 118,64.377642 118,34.282826 94.420715,12 64.000003,12 Z m 0,0" style="fill:url(#b-3);stroke-width:.900016"/><path id="path288" fill="url(#b)" d="M 64.000003,8.0000013 C 33.579295,8.0000013 10,30.282827 10,60.377649 c 0,15.743528 6.451173,29.349481 16.959376,38.743552 0.88242,0.79106 1.413283,1.898509 1.451957,3.079799 l 0.291791,9.60504 c 0.09488,3.06572 3.258991,5.05916 6.064456,3.82161 l 10.715628,-4.73219 c 0.910548,-0.4008 1.926564,-0.47463 2.886322,-0.21095 4.925391,1.35357 10.167192,2.07429 15.630473,2.07429 C 94.420711,112.7588 118,90.475985 118,60.377649 118,30.282827 94.420711,8.0000013 64.000003,8.0000013 Z m 0,0" style="fill:url(#b);stroke-width:.900016"/><path id="path290" fill="#fff" d="m 31.575392,75.699287 15.85898,-25.169256 c 2.52422,-4.000923 7.927735,-4.999395 11.71407,-2.15867 l 12.614064,9.460884 c 1.160156,0.86839 2.752727,0.864874 3.905856,-0.01055 L 92.705081,44.890771 c 2.274612,-1.726233 5.241801,0.994957 3.723051,3.410277 L 80.565624,73.466786 c -2.52422,4.00444 -7.927735,5.002912 -11.714061,2.162187 l -12.617572,-9.4644 c -1.156648,-0.868391 -2.749228,-0.861359 -3.902347,0.01407 L 35.294925,79.109561 c -2.274612,1.726235 -5.241801,-0.994957 -3.719533,-3.410276 z m 0,0" style="stroke-width:.900016"/></svg>