<svg xmlns="http://www.w3.org/2000/svg" xmlns:xlink="http://www.w3.org/1999/xlink" width="128" height="128" enable-background="new" viewBox="0 0 128 128"><linearGradient id="linearGradient1697"><stop offset="0" stop-color="#deddda"/><stop offset=".045" stop-color="#eeeeec"/><stop offset=".091" stop-color="#deddda"/><stop offset=".909" stop-color="#deddda"/><stop offset=".955" stop-color="#eeeeec"/><stop offset="1" stop-color="#c0bfbc"/></linearGradient><linearGradient id="linearGradient1049" x1="20" x2="108" y1="238" y2="238" gradientUnits="userSpaceOnUse" xlink:href="#linearGradient1697"/><linearGradient id="linearGradient1185" x1="52" x2="76" y1="216" y2="216" gradientUnits="userSpaceOnUse" xlink:href="#linearGradient1697"/><linearGradient id="linearGradient1348" x1="65" x2="65" y1="204" y2="200" gradientUnits="userSpaceOnUse"><stop offset="0" stop-color="#9a9996"/><stop offset="1" stop-color="#c0bfbc"/></linearGradient><g transform="translate(0 -172)"><rect width="88" height="58" x="20" y="234" fill="url(#linearGradient1049)" rx="8"/><rect width="88" height="108" x="20" y="180" fill="#f6f5f4" rx="8"/><rect width="80" height="98" x="24" y="186" fill="#1a5fb4" rx="4"/><rect width="80" height="98" x="24" y="184" fill="#3584e4" rx="4"/><path fill="#1c71d8" d="m24 216h80v2h-80z"/><path fill="#1c71d8" d="m24 248h80v2h-80z"/><g id="g1088"><path fill="url(#linearGradient1185)" d="m55 196h18c1.662 0 3 1 3 3v5h-3.96875l-.03125-4h-16l.03125 4h-4.03125v-5c0-1.662 1.338-3 3-3z"/><rect width="24" height="4" x="52" y="202" opacity=".1" ry="1.5"/><path fill="url(#linearGradient1348)" d="m55 200c-1.662 0-3 1.338-3 3v1h4v-2h16v2h4v-1c0-1.662-1.338-3-3-3z"/><path d="m56 202h16v2h-16z" opacity=".1"/></g><use width="100%" height="100%" transform="translate(0 32)" xlink:href="#g1088"/><use width="100%" height="100%" transform="translate(0 64)" xlink:href="#g1088"/></g></svg>